:SAMPLES-PER-SECOND 30
:FULLY-SPECIFIED
:DEGREES
604
root  1.1085 38.0223 -2.87839 -7.5924 15.6986 -1.74202
RightUpLeg  -17.348 -6.88582 -2.79662
RightLeg  7.72274 -11.1562 -2.74221
RightFoot  6.47377 -1.42277 9.34311
RightToes  -5.82094e-011 -1.98785e-016 -5.10186e-018
Spine  10.2389 -3.09146 -14.8573
Spine1  7.13167 -9.60696 19.3119
HEad  6.70343 -2.87607 2.47568
LeftShoulder1  3.15474 -6.51316 -25.3431
LeftArm  -10.2923 15.6664 -54.0815
LeftForeArm  92.9471 -75.0162 -29.6705
LeftHand  0.268079 -1.60388 -4.32915
RightShoulder  2.72817 4.43275 28.4372
RightArm  -5.43827 -28.2144 29.7431
RightForeArm  26.6961 8.0092 10.7591
RightHand  -1.34312 6.62974 -13.2392
LeftUpLeg  15.709 -0.422147 13.782
LeftLeg  34.306 -8.79622 -6.00217
LeftFoot  -6.23714 0.493336 -11.208
LeftToes  -8.4584e-011 5.90861e-011 8.40072e-012
605
root  1.39602 37.8262 -4.5647 -5.94269 14.9685 -0.71475
RightUpLeg  -19.9138 -7.01033 -3.86831
RightLeg  4.64296 -10.6124 -2.83371
RightFoot  6.09168 -1.4209 9.54743
RightToes  -5.82094e-011 -1.98785e-016 -5.10186e-018
Spine  10.9352 -2.68206 -16.1647
Spine1  5.73595 -9.37853 19.42
HEad  2.60793 -1.86011 1.97282
LeftShoulder1  3.13569 -6.48432 -25.2393
LeftArm  -10.1537 14.2456 -53.9423
LeftForeArm  92.5947 -74.8702 -29.344
LeftHand  0.299051 -1.33778 -5.05572
RightShoulder  2.85705 4.72077 28.8134
RightArm  -3.12193 -27.3162 30.5165
RightForeArm  25.4723 9.75573 10.0644
RightHand  -1.25428 6.60031 -12.4218
LeftUpLeg  18.0529 0.865016 11.6427
LeftLeg  24.9954 -10.5419 -5.04697
LeftFoot  -16.0679 -0.410025 -13.2155
LeftToes  -8.4584e-011 5.90861e-011 8.40072e-012
606
root  1.63515 37.6352 -6.44608 -5.04965 13.5438 0.789828
RightUpLeg  -22.0882 -7.14377 -4.94572
RightLeg  2.05591 -9.1079 -3.10976
RightFoot  3.15128 -1.25767 9.96154
RightToes  -5.82094e-011 -1.98785e-016 -5.10186e-018
Spine  13.6497 -1.25176 -18.1433
Spine1  4.01043 -8.56256 20.1009
HEad  -2.41751 -1.03125 1.64011
LeftShoulder1  3.12404 -6.49247 -25.0883
LeftArm  -11.0814 12.2675 -54.1342
LeftForeArm  93.0381 -74.4661 -28.3051
LeftHand  0.304402 -1.19296 -5.27989
RightShoulder  2.93876 4.9268 28.9297
RightArm  0.31859 -25.456 31.7436
RightForeArm  23.9542 12.6146 8.54132
RightHand  -1.08426 6.89107 -10.5561
LeftUpLeg  17.9967 3.53837 8.70425
LeftLeg  20.7181 -6.93444 -2.57108
LeftFoot  -22.5495 -0.887584 -10.3111
LeftToes  -8.4584e-011 5.90861e-011 8.40072e-012
607
root  1.85942 37.6333 -8.25581 -5.13971 10.394 3.14971
RightUpLeg  -22.9449 -7.49541 -6.07069
RightLeg  -0.56839 -6.45015 -2.9996
RightFoot  -2.64577 -0.666625 8.55725
RightToes  -5.82094e-011 -1.98785e-016 -5.10186e-018
Spine  15.6032 0.726434 -20.2025
Spine1  4.6643 -7.19017 19.1835
HEad  -7.58656 -0.317735 2.06524
LeftShoulder1  3.04336 -6.36397 -24.6608
LeftArm  -12.2067 10.5456 -53.7976
LeftForeArm  92.6403 -73.5755 -26.3627
LeftHand  0.244298 -0.663572 -4.62074
RightShoulder  3.13105 5.32292 29.5594
RightArm  3.30798 -22.4895 33.0678
RightForeArm  21.7592 14.8083 7.0977
RightHand  -1.07577 7.0976 -10.3066
LeftUpLeg  18.3693 6.44301 4.5879
LeftLeg  17.0466 -2.95559 -0.708492
LeftFoot  -24.3619 -0.771925 -8.01147
LeftToes  -8.4584e-011 5.90861e-011 8.40072e-012
608
root  2.0836 37.7847 -9.85226 -4.84813 7.45073 4.5835
RightUpLeg  -23.4885 -7.54044 -6.51008
RightLeg  -2.62642 -8.32647 -2.68801
RightFoot  -6.89928 -0.410439 8.95282
RightToes  -5.82094e-011 -1.98785e-016 -5.10186e-018
Spine  16.051 1.54157 -20.4304
Spine1  5.44882 -6.04346 16.8899
HEad  -10.9916 0.377711 1.77575
LeftShoulder1  3.06828 -6.43428 -24.7025
LeftArm  -12.7986 11.2986 -51.8347
LeftForeArm  92.4327 -73.0093 -25.2562
LeftHand  0.168276 0.0558208 -3.68938
RightShoulder  3.30373 5.68829 30.035
RightArm  6.21199 -20.5913 34.7939
RightForeArm  19.7024 17.273 5.42055
RightHand  -1.21169 7.33909 -11.3565
LeftUpLeg  17.2158 8.68215 1.89404
LeftLeg  14.7387 -1.2329 -0.355001
LeftFoot  -24.3765 -0.521411 -5.82211
LeftToes  -8.4584e-011 5.90861e-011 8.40072e-012
609
root  2.2745 38.0647 -11.0936 -4.51842 4.99954 4.65202
RightUpLeg  -23.3135 -7.42913 -6.12271
RightLeg  -1.6149 -14.6673 -1.97934
RightFoot  -1.98937 -0.90704 10.9949
RightToes  -5.82094e-011 -1.98785e-016 -5.10186e-018
Spine  15.9185 1.3183 -19.1904
Spine1  5.23035 -5.26489 14.4261
HEad  -11.4239 1.64423 1.07269
LeftShoulder1  2.79046 -5.33381 -25.4268
LeftArm  -13.0286 14.2122 -49.61
LeftForeArm  93.1073 -72.6327 -24.519
LeftHand  0.214315 0.148493 -4.9396
RightShoulder  3.47239 6.13498 30.1176
RightArm  8.86457 -20.1453 36.1286
RightForeArm  18.4712 20.0652 4.05904
RightHand  -1.2823 7.30846 -12.0182
LeftUpLeg  15.0723 9.28714 0.420211
LeftLeg  14.3367 1.2838 0.0647863
LeftFoot  -22.9605 -0.366768 -4.97188
LeftToes  -8.4584e-011 5.90861e-011 8.40072e-012
